<mxfile host="app.diagrams.net" modified="2023-09-26T14:12:02.475Z" agent="Mozilla/5.0 (Windows NT 10.0; Win64; x64) AppleWebKit/537.36 (KHTML, like Gecko) Chrome/116.0.0.0 Safari/537.36" version="21.8.2" etag="Zlu8SaRP4qUPb-mAUv_u" type="github">
  <diagram name="第 1 页" id="iMAl1XQLH6ZE3Hko7S_J">
    <mxGraphModel>
      <root>
        <mxCell id="0" />
        <mxCell id="1" parent="0" />
      </root>
    </mxGraphModel>
  </diagram>
</mxfile>
